<svg width="24" height="24" viewBox="0 0 24 24" fill="none" xmlns="http://www.w3.org/2000/svg">
<path d="M12.017 0C5.396 0 .029 5.367.029 11.987c0 5.079 3.158 9.417 7.618 11.174-.105-.949-.199-2.403.041-3.439.219-.937 1.406-5.957 1.406-5.957s-.359-.72-.359-1.781c0-1.663.967-2.911 2.168-2.911 1.024 0 1.518.769 1.518 1.688 0 1.029-.653 2.567-.992 3.992-.285 1.193.6 2.165 1.775 2.165 2.128 0 3.768-2.245 3.768-5.487 0-2.861-2.063-4.869-5.008-4.869-3.41 0-5.409 2.562-5.409 5.199 0 1.033.394 2.143.889 2.741.097.118.112.222.085.343-.09.402-.298 1.405-.339 1.601-.053.225-.172.271-.402.165-1.507-.7-2.448-2.78-2.448-4.958 0-3.665 2.660-7.036 7.667-7.036 4.026 0 7.15 2.869 7.15 6.71 0 4.006-2.529 7.228-6.036 7.228-1.18 0-2.290-.614-2.668-1.35 0 0-.584 2.234-.727 2.861-.264 1.026-1.017 2.313-1.447 3.105C10.149 23.859 11.054 24 12.017 24c6.624 0 11.99-5.367 11.99-11.988C24.007 5.367 18.641.001.12.017 0z" fill="currentColor"/>
</svg>